<svg width="35" height="30" viewBox="0 0 35 30" fill="none" xmlns="http://www.w3.org/2000/svg">
<path d="M0.75 2.2937L0.750002 17.1569C0.750002 17.6644 1.15135 18.0752 1.64499 18.073L8.22421 18.0429C8.90835 18.0397 9.33396 17.2779 8.99189 16.6687L8.13916 15.1501C7.77009 14.4929 6.95268 14.2677 6.31344 14.6472L6.22283 14.7009C5.591 15.076 4.78309 14.8534 4.4183 14.2038C4.22921 13.8671 4.18956 13.4631 4.30938 13.0944L5.67766 8.88299C5.89164 8.2244 6.54985 7.83341 7.21165 7.97177L11.4472 8.8573C11.818 8.93482 12.1386 9.17211 12.3278 9.50901C12.6925 10.1585 12.4761 10.9889 11.8444 11.3639L11.7535 11.4179C11.1143 11.7973 10.8952 12.6377 11.2643 13.295L12.1043 14.7909C12.4464 15.4001 13.3009 15.402 13.6456 14.7944L16.9347 8.9968C17.1835 8.55838 17.0381 7.99561 16.6106 7.74184L4.09131 0.310256C2.60629 -0.571274 0.750005 0.530639 0.75 2.2937Z" fill="#34C88A"/>
<path d="M33.0723 17.5237L20.5531 10.0921C20.1255 9.83836 19.5788 9.99031 19.3339 10.431L16.0697 16.3043C15.7303 16.915 16.1592 17.6749 16.8433 17.6749H18.9943C19.4864 17.6749 19.8853 17.2648 19.8853 16.7588V15.7511C19.8853 15.2451 20.2842 14.835 20.7763 14.835L21.3998 14.835C21.6549 14.835 21.8978 14.9474 22.0669 15.1437L25.3197 18.9202C25.6182 19.2668 25.6184 19.7878 25.3201 20.1346L22.0669 23.916C21.8978 24.1126 21.6548 24.2251 21.3995 24.2251H20.7763C20.2842 24.2251 19.8853 23.815 19.8853 23.309V22.3013C19.8853 21.7953 19.4864 21.3852 18.9943 21.3852H16.8688C16.1846 21.3852 15.7557 22.1451 16.0951 22.7558L19.3339 28.5833C19.5788 29.024 20.1255 29.176 20.5531 28.9222L33.0723 21.4906C34.5574 20.6091 34.5574 18.4052 33.0723 17.5237Z" fill="#34C88A"/>
</svg>
